PathFileType	4	(X/Y/Z)	c:/Users/goper/Files/vsCode/490R/osim_files/A03/A03_Slow_05.trc
DataRate	CameraRate	NumFrames	NumMarkers	Units                	OrigDataRate	OrigDataStartFrame	OrigNumFrames
250.00	250.00	9	36	mm	250.0	970	2584
                Frame#	Time	LPSIS			LASIS			LTH1			LTH2			LTH3			LTH4			LLFE			LMFE			LSH1			LSH2			LSH3			LSH4			LLMAL			LMMAL			LCAL			LMTP5			LTOE			LMTP1			RPSIS			RASIS			RTH1			RTH2			RTH3			RTH4			RLFE			RMFE			RSH1			RSH2			RSH3			RSH4			RLMAL			RMMAL			RCAL			RMTP1			RTOE			RMTP5		
		X1	Y1	Z1	X2	Y2	Z2	X3	Y3	Z3	X4	Y4	Z4	X5	Y5	Z5	X6	Y6	Z6	X7	Y7	Z7	X8	Y8	Z8	X9	Y9	Z9	X10	Y10	Z10	X11	Y11	Z11	X12	Y12	Z12	X13	Y13	Z13	X14	Y14	Z14	X15	Y15	Z15	X16	Y16	Z16	X17	Y17	Z17	X18	Y18	Z18	X19	Y19	Z19	X20	Y20	Z20	X21	Y21	Z21	X22	Y22	Z22	X23	Y23	Z23	X24	Y24	Z24	X25	Y25	Z25	X26	Y26	Z26	X27	Y27	Z27	X28	Y28	Z28	X29	Y29	Z29	X30	Y30	Z30	X31	Y31	Z31	X32	Y32	Z32	X33	Y33	Z33	X34	Y34	Z34	X35	Y35	Z35	X36	Y36	Z36

970	3.87600	514.64716	1046.28491	294.45123	288.16080	962.97656	437.04135	437.34851	622.15436	458.47180	440.01651	578.35431	458.48682	378.15088	611.49829	445.47720	390.34204	568.52185	444.95901	462.60870	539.23193	447.09070	436.19843	528.17017	293.60696	524.30182	465.63486	443.02545	532.97607	418.10672	440.63123	464.89429	446.50818	439.93680	483.63602	403.21582	433.72729	604.90503	97.51027	401.93097	592.26935	106.46646	305.02206	673.25433	87.89980	346.71127	458.15784	38.04531	417.21024	425.76486	67.77800	348.78806	454.92999	48.02512	302.90665	506.74307	1044.42383	215.84004	250.30708	975.35828	139.50693	229.08400	608.14557	93.19244	214.03911	567.19873	102.93647	167.77727	623.52893	100.13310	160.28076	581.18689	107.21378	180.09860	545.74823	121.44981	154.55019	558.69568	241.04077	208.14209	467.81500	112.69415	192.63765	430.24744	99.35698	146.48421	485.43765	110.87567	139.45279	440.99405	97.26980	42.94159	144.26180	124.88744	0.00000	0.00000	0.00000	68.02464	78.34480	182.07521	-136.46545	156.40808	211.79037	-144.61571	186.92732	160.59198	-133.07439	134.85088	98.01173
971	3.88000	509.88254	1045.41577	293.98999	283.60623	961.95056	436.91248	434.48636	621.75629	458.45499	437.37592	578.01068	458.47598	375.30008	610.79449	445.56680	387.66638	567.91235	445.04868	460.04120	538.84686	447.03818	433.74194	527.71326	293.58759	522.12366	465.58578	443.04358	531.00604	418.08533	440.66983	462.79932	446.19128	439.99417	481.80692	402.98941	433.72400	604.59393	97.77123	402.07986	591.63696	106.75524	304.94223	673.37866	88.68512	346.71219	458.07098	37.98117	417.21747	425.62708	67.63201	348.81281	454.89465	47.97203	302.87726	502.01038	1043.38904	215.38039	245.41664	974.34741	139.30064	225.15430	607.12054	93.21609	209.80270	566.19049	103.08456	163.39566	622.66248	100.73559	155.98035	580.29486	107.58801	175.63869	544.74335	121.56805	150.17636	557.82440	241.46010	203.50105	466.69159	112.67330	187.70612	429.21094	99.39246	142.06340	484.66058	110.79556	133.46408	439.19446	98.01828	36.26836	144.06020	125.28460	0.00000	0.00000	0.00000	59.31689	77.24381	182.18022	-143.64143	157.52477	211.02560	-151.41209	187.99109	159.23761	-139.66333	136.34612	96.96821
972	3.88400	505.10001	1044.57629	293.52383	279.16373	960.96545	436.75769	431.42114	621.28577	458.34601	434.77170	577.65363	458.47592	372.43961	610.10840	445.61237	385.13928	567.33209	445.14615	457.50024	538.51398	447.08176	431.39410	527.28143	293.48041	519.92792	465.55136	443.05499	529.03894	418.06842	440.71399	460.76828	445.88840	439.99585	479.93271	402.71777	433.75272	604.34534	98.03651	402.21722	591.32043	106.97837	304.95355	672.76819	88.99580	346.84149	458.01334	37.90950	417.20435	425.50903	67.47095	348.79984	454.81302	47.89970	302.88550	497.23618	1042.38672	214.87257	240.40187	973.35266	139.12663	220.94717	606.16455	93.10353	205.15924	565.26929	103.08413	159.29837	621.94202	101.16221	151.44780	579.52728	107.89721	170.41533	543.98828	121.97532	145.73605	556.94446	241.70647	197.61237	465.08878	113.40932	182.77539	428.17395	99.29138	137.20689	483.70956	110.73670	128.42351	438.24741	98.02680	30.03472	143.55220	125.66641	0.00000	0.00000	0.00000	52.24128	76.46883	182.77803	-150.63942	158.28554	210.24190	-157.52974	188.97969	158.39183	-145.61411	137.28481	95.98797
973	3.88800	500.41238	1043.77161	292.99686	274.79440	959.96149	436.66107	428.71649	620.97797	458.37180	432.16409	577.29156	458.49393	369.65805	609.38202	445.69327	382.58469	566.72748	445.26074	454.95181	538.11646	447.05029	428.98328	526.79199	293.44736	517.78619	465.49585	443.08157	527.13660	418.08514	440.75247	458.72278	445.55234	440.03601	478.10605	402.46487	433.79034	604.07080	98.32195	402.35388	591.07465	107.19718	304.96344	672.43195	89.30413	347.13458	457.97577	37.84580	417.19031	425.39307	67.31101	348.83560	454.75568	47.82352	302.85294	492.45007	1041.37622	214.36450	235.48558	972.35315	139.00142	215.15021	605.61713	93.92744	200.28894	564.41827	102.97389	155.26918	621.64825	101.08371	146.74388	578.92664	108.09494	165.57150	543.19910	121.89368	141.07983	556.04791	241.92276	192.52121	463.92859	113.33836	177.81862	427.13010	99.15305	132.18915	482.69147	110.58531	123.30517	437.19366	97.96616	24.30548	142.84277	126.09415	0.00000	0.00000	0.00000	45.66853	75.48852	183.51260	-156.93857	158.51973	209.41777	-163.12784	189.44936	157.52647	-151.07243	137.63409	95.06528
974	3.89200	495.63437	1042.94348	292.56265	270.40030	958.83563	436.56580	425.77505	620.51709	458.31583	429.75775	577.03986	458.58456	366.89984	608.69916	445.81586	379.96985	566.11127	445.36618	452.42874	537.73340	447.09607	426.51483	526.31793	293.46262	515.56488	465.42834	443.11923	525.16016	418.03796	440.79382	456.66937	445.17459	440.03207	476.26746	402.22656	433.84714	603.83429	98.66377	402.53223	590.84088	107.45882	304.98560	672.26575	89.99519	347.17291	457.94931	37.78721	417.18573	425.30554	67.16144	348.83029	454.66162	47.77751	302.83359	487.63696	1040.39722	213.84827	230.50795	971.32812	138.79797	208.25952	603.37659	94.90291	195.09972	563.68408	102.81510	149.84517	620.81537	101.81722	141.83424	578.43390	108.20151	161.05424	542.29791	121.36564	136.21680	555.21606	242.04068	187.36322	462.81104	113.20786	171.65852	425.36627	99.95036	126.77160	481.51038	110.42400	118.16803	436.16995	97.84541	19.07499	141.92526	126.53369	0.00000	0.00000	0.00000	39.78130	74.54039	184.33780	-162.81110	158.51050	207.77620	-168.69232	189.05571	156.13162	-156.02623	137.29274	94.17756
975	3.89600	490.92291	1042.15576	292.07605	265.96539	958.11713	436.17453	422.91855	620.17212	458.30386	427.12402	576.67877	458.60498	364.04758	607.99042	445.91571	377.38834	565.52533	445.51898	449.88565	537.37451	447.11734	424.04434	525.83435	293.45407	513.37164	465.41556	443.13333	523.19299	418.04929	440.84518	454.59247	444.89865	440.05716	474.39609	401.95776	433.85684	603.56976	99.00959	402.68167	590.61389	107.78055	305.00751	671.95416	90.42558	347.44437	457.91660	37.73415	417.15646	425.21536	66.99289	348.80017	454.60410	47.70332	302.80600	482.82639	1039.46521	213.30183	225.60770	970.63824	138.63873	203.74713	603.01562	94.25253	189.74551	563.02692	102.61705	144.62503	620.36169	101.94331	136.60159	578.00720	108.24675	155.71809	541.67462	121.19134	131.07825	554.48047	242.06978	182.08455	461.81610	113.08559	166.07188	424.17453	99.83846	121.78231	480.62918	110.07204	112.96619	435.08698	97.69844	14.26617	140.77370	126.97998	0.00000	0.00000	0.00000	34.51433	73.47359	185.22650	-167.89926	157.82225	206.84375	-173.44846	188.37012	155.08012	-160.46500	136.32880	93.39325
976	3.90000	486.19449	1041.36926	291.60300	261.57162	957.08929	435.99182	420.07178	619.84576	458.31161	424.43329	576.32288	458.63571	361.16864	607.32123	446.01712	374.75549	564.98175	445.65826	447.19415	536.99738	447.11948	421.48468	525.32971	293.47861	511.07828	465.38150	443.18051	521.14758	418.06674	440.89377	452.42953	444.59433	440.04620	472.43002	401.72467	433.87881	603.26801	99.39187	402.82318	590.28082	108.08131	305.00073	672.04034	91.36837	347.44641	457.84909	37.69950	417.14432	425.14423	66.91787	348.73221	454.30591	47.49137	302.83633	478.05167	1038.61340	212.82484	220.50975	969.39203	138.52441	198.38615	602.39050	94.04485	184.26965	562.46893	102.39091	139.33192	619.95630	102.07238	131.14204	577.63831	108.27100	150.24263	541.16028	120.97955	125.72199	553.80310	241.94960	175.92281	460.69806	112.88372	160.89467	423.21664	99.83633	116.19680	479.46857	109.85680	107.72479	434.01886	97.53632	9.94027	139.44420	127.40242	0.00000	0.00000	0.00000	29.83093	72.13835	186.24034	-172.67163	156.86700	206.01485	-177.89514	187.11957	154.06555	-164.49683	134.75166	92.69939
977	3.90400	481.42868	1040.62683	291.13644	257.31381	955.91498	436.16046	416.96588	619.41443	458.23553	421.59735	575.96405	458.64877	358.17773	606.66296	446.11191	371.97180	564.40179	445.74509	444.42548	536.61993	447.14566	418.75983	524.81110	293.57791	508.75763	465.33215	443.20602	519.06366	418.07944	440.93448	450.16486	444.27521	440.06299	470.43039	401.52176	433.93399	602.91217	99.82217	402.92230	589.95483	108.44399	304.95367	671.74622	92.04704	347.49237	457.64041	37.38181	416.94876	424.98544	66.80116	348.69315	454.22583	47.39022	302.78735	473.00876	1037.67090	212.26099	215.33878	968.46906	138.37903	193.55376	602.72668	93.22681	178.53482	561.93958	102.14189	134.12608	619.65460	102.10177	125.55284	577.29297	108.27853	144.53008	540.63800	120.72712	120.02898	553.29388	241.80656	170.98032	459.90414	112.80268	155.71951	422.29657	99.81989	110.81042	478.48462	109.57422	102.52764	432.96790	97.35467	6.06579	137.99269	127.75316	0.00000	0.00000	0.00000	26.07463	70.94596	187.07779	-176.97267	155.41866	205.24416	-181.93570	185.37540	153.14423	-168.07230	132.60484	92.12991
978	3.90800	476.63031	1039.84558	290.63849	253.00473	954.90564	436.02338	414.05960	619.10095	458.24600	418.57144	575.45526	458.62167	355.21094	605.97394	446.21600	369.17395	563.81226	445.87595	441.76733	536.28241	447.19647	416.04465	524.25787	293.64340	506.44943	465.32724	443.22223	516.95892	418.08887	440.94766	447.93289	443.93741	440.07950	468.36551	401.27286	433.93314	602.56146	100.30861	402.99814	589.59998	108.82340	304.87912	670.99371	92.46013	347.63791	457.55182	37.39490	416.91882	424.87061	66.70261	348.63525	454.10446	47.31030	302.76559	468.04111	1036.78186	211.73068	210.39978	967.79980	138.25943	187.09781	601.29993	93.62207	172.72986	561.45813	101.92815	128.46309	619.33423	102.16267	119.84144	576.96057	108.20869	138.75784	540.19171	120.45651	114.26065	552.80188	241.50047	165.69919	459.14285	112.73666	150.59883	421.46643	99.76089	105.40839	477.43265	109.27993	97.30361	431.85297	97.15115	2.58072	136.36618	128.07982	0.00000	0.00000	0.00000	22.45695	69.89763	187.85107	-180.76738	153.43652	204.64383	-185.31946	183.29659	152.68936	-171.31010	130.03661	91.72164
